# xmcd CD database file
#
# Track frame offsets:
#	150
#	11987
#	27755
#	40317
#	49514
#	59102
#	70539
#	79005
#	91825
#	108902
#	121097
#	132787
#	147707
#	159574
#	175569
#	187156
#	194201
#	206862
#	218820
#	235447
#
# Disc length: 3272 seconds
#
# Revision: 0
# Processed by: cddbd v1.5.1PL0 Copyright (c) Steve Scherf et al.
# Submitted via: CDex 1.51
#
DISCID=270cc614
DTITLE=Onward Christian Soldiers - Country Gospel
DYEAR=2000
DGENRE=Country
TTITLE0=Reborn
TTITLE1=One Day At The Time
TTITLE2=Lead Me To Calvary
TTITLE3=I Feel Like Traveling ON
TTITLE4=(There Was A) Talk Oak Tree
TTITLE5=You're Not Home Yet
TTITLE6=Family Bible
TTITLE7=Joy The World
TTITLE8=Jesus Now
TTITLE9=The Old Countryy church
TTITLE10=I Want Jesus To Lead Me
TTITLE11=Onward Christian Soldiers
TTITLE12=He's The Only One
TTITLE13=Precious Memories
TTITLE14=If We Never Meet Again
TTITLE15=Rock Of Ages
TTITLE16=Hallelujah Special
TTITLE17=What A Friend We Have In Jesus
TTITLE18=Halfway Home
TTITLE19=I'll Fly Away
EXTD=YEAR: 2000
EXTT0=
EXTT1=
EXTT2=
EXTT3=
EXTT4=
EXTT5=
EXTT6=
EXTT7=
EXTT8=
EXTT9=
EXTT10=
EXTT11=
EXTT12=
EXTT13=
EXTT14=
EXTT15=
EXTT16=
EXTT17=
EXTT18=
EXTT19=
PLAYORDER=
